<svg width="12" height="13" viewBox="0 0 12 13" fill="none" xmlns="http://www.w3.org/2000/svg">
<path d="M9.76518 3.26517C9.91162 3.11872 9.91162 2.88128 9.76518 2.73483C9.61873 2.58839 9.38129 2.58839 9.23485 2.73483L6.00001 5.96968L2.76517 2.73484C2.61872 2.58839 2.38128 2.58839 2.23483 2.73484C2.08839 2.88128 2.08839 3.11872 2.23483 3.26517L5.46968 6.50001L2.23485 9.73484C2.0884 9.88128 2.0884 10.1187 2.23485 10.2652C2.3813 10.4116 2.61873 10.4116 2.76518 10.2652L6.00001 7.03034L9.23484 10.2652C9.38128 10.4116 9.61872 10.4116 9.76516 10.2652C9.91161 10.1187 9.91161 9.88128 9.76516 9.73484L6.53034 6.50001L9.76518 3.26517Z" fill="currentColor"/>
</svg>
