<svg width="27" height="27" viewBox="0 0 27 27" fill="none" xmlns="http://www.w3.org/2000/svg">
<path fill-rule="evenodd" clip-rule="evenodd" d="M7.28152 2.53125C4.65802 2.53125 2.53125 4.65802 2.53125 7.28152C2.53125 8.61305 3.0901 9.88345 4.07165 10.7832L7.73081 14.1374C8.71875 15.043 9.28125 16.3217 9.28125 17.6619V22.5C9.28125 24.5942 11.6571 25.804 13.3508 24.5723L15.5347 22.984C16.5535 22.243 17.1562 21.0593 17.1562 19.7996V17.7964C17.1562 16.39 17.7755 15.0549 18.8491 14.1464L22.8095 10.7953C23.8618 9.90489 24.4688 8.59627 24.4688 7.21774C24.4688 4.62946 22.3705 2.53125 19.7823 2.53125H7.28152ZM4.21875 7.28152C4.21875 5.59 5.59 4.21875 7.28152 4.21875H19.7823C21.4386 4.21875 22.7812 5.56144 22.7812 7.21774C22.7812 8.0999 22.3929 8.93731 21.7194 9.50713L17.7591 12.8582C16.3065 14.0873 15.4688 15.8936 15.4688 17.7964V19.7996C15.4688 20.5194 15.1243 21.1958 14.5421 21.6192L12.3582 23.2075C11.7799 23.6281 10.9688 23.215 10.9688 22.5V17.6619C10.9688 15.8487 10.2077 14.1187 8.87109 12.8935L5.21193 9.53925C4.57907 8.95913 4.21875 8.14003 4.21875 7.28152Z" fill="currentColor"/>
</svg>
